<svg id="Layer" enable-background="new 0 0 64 64" height="512" viewBox="0 0 64 64" width="512" xmlns="http://www.w3.org/2000/svg"><path d="m47.56 16.44c8.59 8.6 8.59 22.52 0 31.12-8.6 8.59-22.52 8.59-31.12 0-8.59-8.6-8.59-22.52 0-31.12 8.6-8.59 22.52-8.59 31.12 0zm-7.31 9.9c.63-1.62-.97-3.22-2.59-2.59l-15.75 6.12c-1.78.69-1.67 3.25.16 3.79l6.39 1.88 1.88 6.39c.54 1.83 3.1 1.94 3.79.16z" fill="#4dd0e1"/><path d="m28.46 35.54-6.39-1.88c-1.83-.54-1.94-3.1-.16-3.79l15.75-6.12c1.62-.63 3.22.97 2.59 2.59l-6.12 15.75c-.69 1.78-3.25 1.67-3.79-.16z" fill="#e0f7fa"/><g fill="#012e52"><path d="m48.975 48.973c9.348-9.358 9.348-24.587-.001-33.948-9.359-9.348-24.588-9.348-33.947 0 0 0-.001.001-.001.001-9.348 9.359-9.348 24.588.001 33.948 4.68 4.675 10.826 7.012 16.973 7.012 6.146 0 12.295-2.338 16.975-7.013zm-31.121-31.119c7.801-7.79 20.493-7.79 28.291 0 7.792 7.8 7.792 20.492.001 28.291-7.799 7.793-20.492 7.793-28.292.002-7.79-7.8-7.79-20.492 0-28.293z"/><path d="m32.274 45.365c1.666 0 3.114-.986 3.72-2.551l6.12-15.75c.583-1.5.238-3.139-.901-4.278-1.139-1.14-2.778-1.483-4.278-.901l-15.748 6.119c-1.621.628-2.622 2.157-2.55 3.896.072 1.741 1.197 3.184 2.868 3.677l5.344 1.572 1.572 5.345c.493 1.669 1.936 2.794 3.677 2.866.059.004.118.005.176.005zm6.111-19.751-6.126 15.751-1.545-5.251 1.29-1.29c.781-.781.781-2.047 0-2.828-.78-.781-2.048-.781-2.828 0l-1.289 1.289-5.252-1.551z"/></g></svg>